<svg width="116" height="33" viewBox="0 0 116 33" fill="none" xmlns="http://www.w3.org/2000/svg">
<path d="M53.1387 29.3919H47.6017L40.877 9.57031H44.9908L50.3702 26.2211L55.7479 9.57031H59.8617L53.1387 29.3919Z" fill="#111111"/>
<path d="M67.1537 9.57031H63.1992V29.3919H67.1537V9.57031Z" fill="#111111"/>
<path d="M83.4295 29.7894C80.7787 29.7894 78.4864 28.5207 76.9437 26.419V29.3919H72.9893V0.0234375H76.9437V12.5433C78.4864 10.4415 80.7805 9.17284 83.4295 9.17284C88.8469 9.17284 92.9209 13.4145 92.9209 19.4802C92.9209 25.5478 88.8469 29.7894 83.4295 29.7894ZM76.9437 19.482C76.9437 23.4859 79.5148 26.1413 82.9551 26.1413C86.3953 26.1413 88.9665 23.4859 88.9665 19.482C88.9665 15.4781 86.3953 12.821 82.9551 12.821C79.5148 12.821 76.9437 15.4781 76.9437 19.482Z" fill="#111111"/>
<path d="M115.228 20.8278H99.7252C100.2 24.2763 102.414 26.2982 105.737 26.2982C108.148 26.2982 109.731 25.2273 110.522 23.4432H114.792C113.566 27.5269 110.126 29.7866 105.577 29.7866C99.9624 29.7866 95.8486 25.545 95.8486 19.4792C95.8486 13.4135 99.9624 9.17188 105.577 9.17188C111.194 9.17188 115.306 13.4135 115.306 19.4792C115.306 19.9566 115.268 20.3922 115.228 20.8278ZM99.7633 17.9746H111.391C110.917 14.6441 108.74 12.6621 105.577 12.6621C102.374 12.6621 100.238 14.6441 99.7633 17.9746Z" fill="#111111"/>
<path d="M65.185 6.53399C66.9849 6.53399 68.4441 5.07131 68.4441 3.267C68.4441 1.46268 66.9849 0 65.185 0C63.385 0 61.9258 1.46268 61.9258 3.267C61.9258 5.07131 63.385 6.53399 65.185 6.53399Z" fill="#111111"/>
<path d="M19.555 3.267C19.555 1.46289 21.0144 0 22.8142 0H3.25917C1.45939 0 0 1.46289 0 3.267C0 5.0711 1.45939 6.53399 3.25917 6.53399H22.8142C21.0144 6.53399 19.555 5.0711 19.555 3.267Z" fill="#66CCCC"/>
<path d="M20.7483 27.1007L10.9708 10.125C11.8707 11.6877 11.3366 13.686 9.77759 14.5881C8.21862 15.4901 6.22509 14.9547 5.3252 13.392L15.1027 30.3677C16.0026 31.9304 17.9961 32.4658 19.5551 31.5638C21.1141 30.6617 21.6482 28.6634 20.7483 27.1007Z" fill="#6666CC"/>
<path d="M34.2231 0.438152C32.6641 -0.463901 30.6706 0.0715231 29.7707 1.63424L19.9932 18.6099C20.8931 17.0472 22.8866 16.5118 24.4456 17.4138C26.0045 18.3159 26.5387 20.3142 25.6388 21.8769L35.4163 4.90123C36.3162 3.33852 35.7821 1.34202 34.2231 0.438152Z" fill="#FF6666"/>
<path d="M22.8119 6.53399C24.6119 6.53399 26.0711 5.07131 26.0711 3.267C26.0711 1.46268 24.6119 0 22.8119 0C21.0119 0 19.5527 1.46268 19.5527 3.267C19.5527 5.07131 21.0119 6.53399 22.8119 6.53399Z" fill="#FFCC00"/>
<path d="M8.14785 15.0223C9.94784 15.0223 11.407 13.5596 11.407 11.7553C11.407 9.95096 9.94784 8.48828 8.14785 8.48828C6.34785 8.48828 4.88867 9.95096 4.88867 11.7553C4.88867 13.5596 6.34785 15.0223 8.14785 15.0223Z" fill="#FFCC00"/>
<path d="M22.8119 23.5106C24.6119 23.5106 26.0711 22.0479 26.0711 20.2436C26.0711 18.4392 24.6119 16.9766 22.8119 16.9766C21.0119 16.9766 19.5527 18.4392 19.5527 20.2436C19.5527 22.0479 21.0119 23.5106 22.8119 23.5106Z" fill="#FFCC00"/>
</svg>
