<svg width="33" height="16" viewBox="0 0 33 16" fill="none" xmlns="http://www.w3.org/2000/svg">
<rect width="33" height="16" rx="2" fill="#434343"/>
<path d="M9.04 7.608C9.608 7.712 10.064 7.916 10.408 8.22C10.76 8.524 10.936 8.988 10.936 9.612C10.936 10.476 10.632 11.092 10.024 11.46C9.416 11.82 8.564 12 7.468 12H4.972V3.708H7.144C9.432 3.708 10.576 4.412 10.576 5.82C10.576 6.308 10.428 6.708 10.132 7.02C9.836 7.324 9.472 7.52 9.04 7.608ZM6.556 4.872V7.116H7.528C7.968 7.116 8.316 7.02 8.572 6.828C8.828 6.628 8.956 6.336 8.956 5.952C8.956 5.552 8.82 5.272 8.548 5.112C8.284 4.952 7.868 4.872 7.3 4.872H6.556ZM7.48 10.812C8.064 10.812 8.508 10.724 8.812 10.548C9.124 10.372 9.28 10.04 9.28 9.552C9.28 9.08 9.132 8.74 8.836 8.532C8.548 8.324 8.152 8.22 7.648 8.22H6.556V10.812H7.48ZM17.4914 8.676C17.4914 8.756 17.4794 8.964 17.4554 9.3H13.4714C13.5194 9.916 13.6794 10.356 13.9514 10.62C14.2234 10.884 14.5834 11.016 15.0314 11.016C15.3114 11.016 15.5754 10.972 15.8234 10.884C16.0714 10.788 16.3354 10.644 16.6154 10.452L17.2514 11.328C16.5474 11.896 15.7634 12.18 14.8994 12.18C13.9314 12.18 13.1834 11.884 12.6554 11.292C12.1354 10.7 11.8754 9.892 11.8754 8.868C11.8754 8.22 11.9874 7.64 12.2114 7.128C12.4354 6.608 12.7594 6.204 13.1834 5.916C13.6074 5.62 14.1114 5.472 14.6954 5.472C15.5834 5.472 16.2714 5.756 16.7594 6.324C17.2474 6.884 17.4914 7.668 17.4914 8.676ZM15.9674 8.232C15.9674 7.12 15.5554 6.564 14.7314 6.564C14.3554 6.564 14.0594 6.704 13.8434 6.984C13.6354 7.256 13.5114 7.696 13.4714 8.304H15.9674V8.232ZM22.5053 11.7C22.2813 11.86 22.0293 11.98 21.7493 12.06C21.4773 12.14 21.1973 12.18 20.9093 12.18C20.2853 12.172 19.8093 11.996 19.4813 11.652C19.1613 11.3 19.0013 10.784 19.0013 10.104V6.756H18.0053V5.652H19.0013V4.248L20.5373 4.068V5.652H22.0133L21.8573 6.756H20.5373V10.068C20.5373 10.38 20.5893 10.604 20.6933 10.74C20.8053 10.876 20.9773 10.944 21.2093 10.944C21.4413 10.944 21.6933 10.868 21.9653 10.716L22.5053 11.7ZM27.9441 10.32C27.9441 10.568 27.9801 10.752 28.0521 10.872C28.1321 10.984 28.2561 11.072 28.4241 11.136L28.1001 12.156C27.7401 12.124 27.4441 12.036 27.2121 11.892C26.9881 11.748 26.8161 11.528 26.6961 11.232C26.4801 11.552 26.2081 11.792 25.8801 11.952C25.5601 12.104 25.2001 12.18 24.8001 12.18C24.1681 12.18 23.6681 12 23.3001 11.64C22.9321 11.28 22.7481 10.808 22.7481 10.224C22.7481 9.536 22.9961 9.012 23.4921 8.652C23.9961 8.284 24.7121 8.1 25.6401 8.1H26.4321V7.74C26.4321 7.332 26.3361 7.048 26.1441 6.888C25.9601 6.72 25.6601 6.636 25.2441 6.636C24.7801 6.636 24.2201 6.748 23.5641 6.972L23.2041 5.928C23.9961 5.624 24.7641 5.472 25.5081 5.472C27.1321 5.472 27.9441 6.2 27.9441 7.656V10.32ZM25.2081 11.064C25.7281 11.064 26.1361 10.804 26.4321 10.284V9H25.7961C24.8041 9 24.3081 9.368 24.3081 10.104C24.3081 10.408 24.3841 10.644 24.5361 10.812C24.6881 10.98 24.9121 11.064 25.2081 11.064Z" fill="#CCCCCC"/>
</svg>
