<svg width="38" height="38" viewBox="0 0 38 38" fill="none" xmlns="http://www.w3.org/2000/svg">
<path d="M29.7832 4.70312H7.8377C6.10625 4.70312 4.70264 6.10674 4.70264 7.83819V29.7837C4.70264 31.5151 6.10625 32.9187 7.8377 32.9187H29.7832C31.5146 32.9187 32.9183 31.5151 32.9183 29.7837V7.83819C32.9183 6.10674 31.5146 4.70312 29.7832 4.70312Z" stroke="#A1A1A1" stroke-width="3" stroke-linecap="round" stroke-linejoin="round"/>
<path d="M13.3215 15.6753C14.6201 15.6753 15.6728 14.6225 15.6728 13.324C15.6728 12.0254 14.6201 10.9727 13.3215 10.9727C12.0229 10.9727 10.9702 12.0254 10.9702 13.324C10.9702 14.6225 12.0229 15.6753 13.3215 15.6753Z" stroke="#A1A1A1" stroke-width="3" stroke-linecap="round" stroke-linejoin="round"/>
<path d="M32.9206 23.5135L25.083 15.6758L7.84009 32.9187" stroke="#A1A1A1" stroke-width="3" stroke-linecap="round" stroke-linejoin="round"/>
</svg>
