<svg t="1706242273734" class="icon" viewBox="0 0 1024 1024" version="1.1" xmlns="http://www.w3.org/2000/svg" p-id="1607" width="200" height="200"><path d="M565.8851552 566.61333333v427.4403552c224.2787552-24.7580448 402.68231147-202.79751147 427.8044448-427.4403552H565.8851552zM457.02257813 993.6896V566.61333333H30.3104c25.12213333 223.91466667 202.79751147 401.5900448 426.71217813 427.07626667zM30.3104 458.1148448h426.71217813V31.03857813C233.10791147 56.16071147 55.43253333 234.20017813 30.3104 458.1148448zM980.94648853 129.34257813L878.63751147 231.6515552l-58.61831147-26.57848853-26.57848853-58.9824 102.67306666-102.67306667c-70.99733333-30.21937813-153.64551147-5.82542187-196.608 58.25422187-30.21937813 45.14702187-35.31662187 100.48853333-16.384 148.54826666l-88.10951146 71.36142294c-17.11217813 13.83537813-27.30666667 33.86026667-28.39893334 55.7056-1.09226667 21.84533333 6.91768853 42.96248853 22.57351147 58.6183104 15.29173333 15.29173333 36.77297813 23.66577813 58.6183104 22.57351146 21.84533333-1.09226667 42.23431147-11.2867552 55.7056-28.39893333l71.36142293-88.10951147c48.05973333 18.56853333 103.4012448 13.83537813 148.54826667-16.74808853 63.35146667-42.5984 87.74542187-124.88248853 57.52604373-195.87982187z" fill="#bfbfbf" p-id="1608"></path></svg>