<svg width="24" height="24" viewBox="0 0 24 24" fill="none" xmlns="http://www.w3.org/2000/svg">
<path fill-rule="evenodd" clip-rule="evenodd" d="M6.87238 9.01805C6.37803 9.88865 6.08765 10.9154 6.08765 11.9909C6.08765 15.2381 8.72079 17.8903 11.9786 17.8903V21.9837C6.45558 21.9837 2 17.4912 2 11.9909C2 10.1809 2.48709 8.45978 3.31902 6.99463L6.87238 9.01805Z" fill="url(#paint0_linear_15397_119823)"/>
<path fill-rule="evenodd" clip-rule="evenodd" d="M17.8255 11.991C17.8255 10.8738 17.5489 9.8836 17.0559 9.04423L20.5791 6.96875C21.4581 8.46514 21.9132 10.1771 21.9132 11.991C21.9132 17.5181 17.4538 21.9839 11.9346 21.9839V17.8904C15.1962 17.8904 17.8255 15.2573 17.8255 11.991Z" fill="url(#paint1_linear_15397_119823)"/>
<path fill-rule="evenodd" clip-rule="evenodd" d="M11.9573 6.09154C9.78367 6.09154 7.88617 7.26112 6.86757 9.02921L3.3269 6.9836C5.05233 3.9886 8.277 1.99805 11.9573 1.99805C15.6466 1.99805 18.8632 4.01897 20.5834 6.97618L17.0513 9.03664C16.0275 7.27655 14.1219 6.09154 11.9573 6.09154Z" fill="url(#paint2_linear_15397_119823)"/>
<path d="M5.09728 10.0539C6.22659 10.0539 7.14208 9.13713 7.14208 8.00621C7.14208 6.87529 6.22659 5.9585 5.09728 5.9585C3.96798 5.9585 3.05249 6.87529 3.05249 8.00621C3.05249 9.13713 3.96798 10.0539 5.09728 10.0539Z" fill="#66CBCB"/>
<path d="M18.8175 10.0539C19.9468 10.0539 20.8623 9.13711 20.8623 8.0062C20.8623 6.87528 19.9468 5.9585 18.8175 5.9585C17.6882 5.9585 16.7727 6.87528 16.7727 8.0062C16.7727 9.13711 17.6882 10.0539 18.8175 10.0539Z" fill="#FF6666"/>
<path d="M11.9572 21.9857C13.0854 21.9857 13.9999 21.0699 13.9999 19.9401C13.9999 18.8104 13.0854 17.8945 11.9572 17.8945C10.8291 17.8945 9.91455 18.8104 9.91455 19.9401C9.91455 21.0699 10.8291 21.9857 11.9572 21.9857Z" fill="#6666CC"/>
<path d="M18.8174 9.56355C19.6762 9.56355 20.3723 8.86639 20.3723 8.00639C20.3723 7.14639 19.6762 6.44922 18.8174 6.44922C17.9586 6.44922 17.2625 7.14639 17.2625 8.00639C17.2625 8.86639 17.9586 9.56355 18.8174 9.56355Z" fill="#FFCC00"/>
<path d="M5.07448 9.56355C5.93325 9.56355 6.62943 8.86639 6.62943 8.00639C6.62943 7.14639 5.93325 6.44922 5.07448 6.44922C4.2157 6.44922 3.51953 7.14639 3.51953 8.00639C3.51953 8.86639 4.2157 9.56355 5.07448 9.56355Z" fill="#FFCC00"/>
<path d="M11.9573 21.4942C12.8161 21.4942 13.5122 20.7971 13.5122 19.9371C13.5122 19.0771 12.8161 18.3799 11.9573 18.3799C11.0985 18.3799 10.4023 19.0771 10.4023 19.9371C10.4023 20.7971 11.0985 21.4942 11.9573 21.4942Z" fill="#FFCC00"/>
<defs>
<linearGradient id="paint0_linear_15397_119823" x1="4.12558" y1="13.6673" x2="5.71875" y2="6.63215" gradientUnits="userSpaceOnUse">
<stop stop-color="#6666CC"/>
<stop offset="1" stop-color="#6666CC" stop-opacity="0.3"/>
</linearGradient>
<linearGradient id="paint1_linear_15397_119823" x1="16.9239" y1="18.8903" x2="10.4502" y2="21.9778" gradientUnits="userSpaceOnUse">
<stop stop-color="#FF6666"/>
<stop offset="1" stop-color="#FF6666" stop-opacity="0.3"/>
</linearGradient>
<linearGradient id="paint2_linear_15397_119823" x1="14.455" y1="5.51734" x2="18.3309" y2="10.6789" gradientUnits="userSpaceOnUse">
<stop stop-color="#66CCCC"/>
<stop offset="1" stop-color="#66CCCC" stop-opacity="0.3"/>
</linearGradient>
</defs>
</svg>
