<svg width="40" height="40" viewBox="0 0 40 40" fill="none" xmlns="http://www.w3.org/2000/svg">
<g clip-path="url(#clip0_12562_2990)">
<path fill-rule="evenodd" clip-rule="evenodd" d="M30.8013 10.0106C29.5298 8.73909 28.0268 7.7369 26.3828 7.05236C26.381 7.05156 26.379 7.05078 26.3771 7.04999C26.3713 7.04755 26.3654 7.04512 26.3596 7.04269C26.2564 7 26.1528 6.95855 26.0487 6.91836C25.3196 6.63703 24.5645 6.41741 23.7911 6.26357C23.6251 6.23055 23.4587 6.20066 23.2921 6.17388C22.3079 6.01574 21.3135 5.96619 20.3263 6.02352C19.6418 6.06327 18.9607 6.15443 18.2889 6.2964C17.7763 6.40474 17.2691 6.54268 16.7699 6.70996C16.4703 6.81033 16.1737 6.92126 15.8805 7.0427C14.8671 7.46248 13.9133 8.00017 13.0372 8.64102C12.5568 8.99239 12.0997 9.37475 11.669 9.7857C11.0896 10.3385 10.5578 10.9429 10.0808 11.5932C9.96244 11.7544 9.84748 11.9186 9.73601 12.0854C9.64198 12.2261 9.5507 12.3684 9.46218 12.5121C9.07933 13.1337 8.7482 13.7827 8.47079 14.4525C8.17091 15.1764 7.93379 15.9247 7.762 16.6889C7.54151 17.6696 7.42859 18.6765 7.42859 19.692C7.42859 20.5836 7.51565 21.4685 7.68613 22.3351C7.83926 23.1134 8.05969 23.8766 8.3448 24.6163C8.38548 24.7219 8.42748 24.8269 8.47079 24.9315C8.81234 25.756 9.23533 26.5491 9.73601 27.2985C10.2062 28.0021 10.7382 28.6573 11.3239 29.2571C12.6124 30.5766 14.1606 31.6287 15.8806 32.3412C18.3823 33.3774 21.1353 33.6486 23.7911 33.1203C26.447 32.5921 28.8866 31.2881 30.8013 29.3732L26.3305 24.9024C25.3 25.933 23.9869 26.6348 22.5576 26.9191C21.1282 27.2034 19.6466 27.0575 18.3001 26.4998C17.4018 26.1277 16.5905 25.5833 15.9096 24.9024C15.5699 24.5628 15.2626 24.1891 14.9932 23.7858C14.7401 23.4071 14.524 23.0076 14.3463 22.5929C14.3348 22.5659 14.3234 22.5389 14.3122 22.5119C13.9437 21.6222 13.7513 20.6644 13.7513 19.692C13.7513 18.7811 13.9201 17.883 14.2444 17.0417C14.2663 16.9849 14.2889 16.9283 14.3122 16.8721C14.496 16.4282 14.7237 16.0014 14.9932 15.5981C15.2462 15.2194 15.5325 14.8668 15.8477 14.544C15.8682 14.523 15.8888 14.5022 15.9096 14.4815C16.5905 13.8005 17.4018 13.2562 18.3001 12.8841C19.1943 12.5138 20.148 12.325 21.1064 12.3232L21.1201 12.3232C21.6004 12.3232 22.0819 12.3702 22.5576 12.4648C23.0043 12.5536 23.4397 12.6833 23.8584 12.8509C23.8857 12.8619 23.9129 12.8729 23.9399 12.8841C24.8296 13.2527 25.643 13.7939 26.3305 14.4815L26.3309 14.4812L30.8013 10.0106Z" fill="#F4F4F4"/>
<path d="M28.6057 30.2638C30.3512 30.2638 31.7663 28.8487 31.7663 27.1032C31.7663 25.3576 30.3512 23.9426 28.6057 23.9426C26.8602 23.9426 25.4451 25.3576 25.4451 27.1032C25.4451 28.8487 26.8602 30.2638 28.6057 30.2638Z" fill="#F4F4F4"/>
<mask id="mask0_12562_2990" style="mask-type:alpha" maskUnits="userSpaceOnUse" x="7" y="6" width="25" height="28">
<path fill-rule="evenodd" clip-rule="evenodd" d="M30.8016 10.0101C29.5301 8.7386 28.0271 7.73641 26.383 7.05187L26.3766 7.04916L26.3597 7.04219C25.5352 6.70063 24.6752 6.4389 23.7913 6.26308C23.6254 6.23007 23.459 6.20017 23.2923 6.17339C22.3068 6.01504 21.3112 5.96558 20.3227 6.02325C19.6395 6.06312 18.9597 6.1542 18.2892 6.29591C17.7765 6.40425 17.2693 6.54219 16.7701 6.70947C16.4706 6.80984 16.174 6.92077 15.8808 7.04221C14.8714 7.46033 13.9211 7.99541 13.0478 8.63292C12.5589 8.9898 12.0942 9.37875 11.6566 9.79725C11.0892 10.3399 10.5676 10.9323 10.0986 11.5687C9.97409 11.7377 9.85326 11.9098 9.73625 12.0849C9.64223 12.2256 9.55094 12.3679 9.46242 12.5116C9.07957 13.1332 8.74844 13.7822 8.47103 14.452C8.17115 15.176 7.93404 15.9242 7.76224 16.6884C7.54175 17.6691 7.42883 18.676 7.42883 19.6915C7.42883 20.5831 7.51589 21.4682 7.68638 22.3345C7.83951 23.1128 8.05994 23.8761 8.34505 24.6158C8.38573 24.7213 8.42773 24.8264 8.47103 24.931C8.81259 25.7555 9.23557 26.5488 9.73625 27.298C10.2064 28.0016 10.7384 28.6568 11.3241 29.2566C12.6126 30.5761 14.1608 31.6283 15.8808 32.3407C18.3826 33.3769 21.1355 33.6481 23.7913 33.1198C26.4165 32.5976 28.8303 31.3176 30.7349 29.4391C31.3688 28.861 31.7666 28.0285 31.7666 27.103C31.7666 25.3574 30.3515 23.9424 28.606 23.9424C27.7143 23.9424 26.9089 24.3116 26.3343 24.9055L26.3307 24.9019C25.3002 25.9325 23.9872 26.6343 22.5578 26.9186C21.1285 27.2029 19.6469 27.057 18.3004 26.4993C17.402 26.1272 16.5908 25.583 15.9098 24.9019C15.5701 24.5623 15.2629 24.1886 14.9934 23.7853C14.7404 23.4066 14.5242 23.0071 14.3466 22.5923C14.335 22.5654 14.3237 22.5384 14.3125 22.5113C13.9439 21.6217 13.7515 20.6638 13.7515 19.6915C13.7515 18.7806 13.9204 17.8825 14.2447 17.0412C14.2665 16.9844 14.2892 16.9278 14.3125 16.8716C14.4963 16.4278 14.7239 16.0009 14.9934 15.5976C15.2464 15.2189 15.5328 14.8663 15.848 14.5435C15.8685 14.5225 15.8891 14.5017 15.9098 14.481C16.5908 13.8 17.402 13.2557 18.3004 12.8836C19.1945 12.5133 20.1483 12.3245 21.1067 12.3227L21.1203 12.3227C21.6007 12.3227 22.0821 12.3697 22.5578 12.4643C23.0045 12.5532 23.4399 12.6828 23.8587 12.8505C23.886 12.8614 23.9132 12.8724 23.9402 12.8836C24.8282 13.2515 25.6401 13.7913 26.3269 14.477C26.902 15.0755 27.7104 15.4479 28.606 15.4479C30.3515 15.4479 31.7666 14.0328 31.7666 12.2873C31.7666 11.3938 31.3958 10.5869 30.7997 10.012L30.8016 10.0101Z" fill="#F4F4F4"/>
</mask>
<g mask="url(#mask0_12562_2990)">
<path d="M4.37244 20.5001C4.37244 11.9639 11.2864 5.05029 19.8231 5.05029C28.3597 5.05029 35.2738 11.9639 35.2738 20.5001C35.2738 29.0363 28.3597 35.95 19.8231 35.95C11.2864 35.8794 4.37244 28.9659 4.37244 20.5001Z" fill="#65CACA"/>
<path d="M3.26996 23.9433C3.26996 16.4999 9.29843 10.4714 16.7417 10.4714C24.1851 10.4714 30.2135 16.4999 30.2135 23.9433C30.2135 31.3866 24.1851 37.4149 16.7417 37.4149C9.29843 37.3535 3.26996 31.325 3.26996 23.9433Z" fill="#6666CC"/>
<path fill-rule="evenodd" clip-rule="evenodd" d="M13.7425 19.5212C13.7389 19.6509 13.7371 19.7811 13.7371 19.9117C13.7371 27.3658 19.8246 33.4533 27.3409 33.5155C34.8571 33.5155 40.9447 27.4279 40.9447 19.9117C40.9447 19.7811 40.9429 19.6509 40.9392 19.5212H13.7425Z" fill="#FE6666"/>
<path d="M28.6057 15.4484C30.3512 15.4484 31.7663 14.0333 31.7663 12.2878C31.7663 10.5422 30.3512 9.1272 28.6057 9.1272C26.8602 9.1272 25.4451 10.5422 25.4451 12.2878C25.4451 14.0333 26.8602 15.4484 28.6057 15.4484Z" fill="#FFCC00"/>
</g>
</g>
<defs>
<clipPath id="clip0_12562_2990">
<rect width="24.338" height="27.4286" fill="white" transform="translate(7.42859 6)"/>
</clipPath>
</defs>
</svg>
