<svg width="35" height="16" viewBox="0 0 35 16" fill="none" xmlns="http://www.w3.org/2000/svg">
<rect x="0.52002" width="34" height="16" rx="2" fill="#434343"/>
<path d="M9.56002 7.608C10.508 7.788 11.456 8.232 11.456 9.612C11.456 11.436 10.004 12 7.98802 12H5.49202V3.708H7.66402C9.80002 3.708 11.096 4.308 11.096 5.82C11.096 6.852 10.352 7.44 9.56002 7.608ZM7.82002 4.872H7.07602V7.116H8.04802C8.91202 7.116 9.47602 6.732 9.47602 5.952C9.47602 5.112 8.90002 4.872 7.82002 4.872ZM8.00002 10.812C9.04402 10.812 9.80002 10.596 9.80002 9.552C9.80002 8.556 9.09202 8.22 8.16802 8.22H7.07602V10.812H8.00002ZM18.0114 8.676C18.0114 8.88 17.9874 9.132 17.9754 9.3H13.9914C14.0994 10.596 14.7114 11.016 15.5514 11.016C16.1154 11.016 16.5834 10.836 17.1354 10.452L17.7714 11.328C17.1474 11.832 16.3794 12.18 15.4194 12.18C13.4514 12.18 12.3954 10.872 12.3954 8.868C12.3954 6.936 13.4154 5.472 15.2154 5.472C16.9914 5.472 18.0114 6.672 18.0114 8.676ZM16.4874 8.304V8.232C16.4874 7.188 16.1154 6.564 15.2514 6.564C14.5314 6.564 14.0754 7.044 13.9914 8.304H16.4874ZM22.4853 10.716L23.0253 11.7C22.5693 12.024 21.9933 12.18 21.4293 12.18C20.1813 12.168 19.5213 11.46 19.5213 10.104V6.756H18.5253V5.652H19.5213V4.248L21.0573 4.068V5.652H22.5333L22.3773 6.756H21.0573V10.068C21.0573 10.692 21.2613 10.944 21.7293 10.944C21.9693 10.944 22.2093 10.872 22.4853 10.716ZM28.4641 10.32C28.4641 10.836 28.6321 11.016 28.9441 11.136L28.6201 12.156C27.9241 12.096 27.4681 11.844 27.2161 11.232C26.7721 11.904 26.0761 12.18 25.3201 12.18C24.0481 12.18 23.2681 11.376 23.2681 10.224C23.2681 8.844 24.3121 8.1 26.1601 8.1H26.9521V7.74C26.9521 6.912 26.5801 6.636 25.7641 6.636C25.3321 6.636 24.7201 6.756 24.0841 6.972L23.7241 5.928C24.5041 5.628 25.3081 5.472 26.0281 5.472C27.7201 5.472 28.4641 6.252 28.4641 7.656V10.32ZM25.7281 11.064C26.2681 11.064 26.6641 10.788 26.9521 10.284V9H26.3161C25.3201 9 24.8281 9.36 24.8281 10.104C24.8281 10.716 25.1401 11.064 25.7281 11.064Z" fill="#CCCCCC"/>
</svg>
