<svg width="14" height="16" viewBox="0 0 14 16" fill="none" xmlns="http://www.w3.org/2000/svg">
<path fill-rule="evenodd" clip-rule="evenodd" d="M5.3501 3.99961C5.3501 3.08834 6.08883 2.34961 7.0001 2.34961C7.91137 2.34961 8.6501 3.08834 8.6501 3.99961C8.6501 4.91088 7.91137 5.64961 7.0001 5.64961C6.08883 5.64961 5.3501 4.91088 5.3501 3.99961ZM7.0001 0.849609C5.2604 0.849609 3.8501 2.25991 3.8501 3.99961C3.8501 5.73931 5.2604 7.14961 7.0001 7.14961C8.7398 7.14961 10.1501 5.73931 10.1501 3.99961C10.1501 2.25991 8.7398 0.849609 7.0001 0.849609ZM4.3999 8.04883C2.32884 8.04883 0.649902 9.72776 0.649902 11.7988V13.3988C0.649902 14.3653 1.4334 15.1488 2.3999 15.1488H11.5999C12.5664 15.1488 13.3499 14.3653 13.3499 13.3988V11.7988C13.3499 9.72776 11.671 8.04883 9.59991 8.04883H4.3999ZM2.1499 11.7988C2.1499 10.5562 3.15726 9.54883 4.3999 9.54883H9.59991C10.8425 9.54883 11.8499 10.5562 11.8499 11.7988V13.3988C11.8499 13.5369 11.738 13.6488 11.5999 13.6488H2.3999C2.26183 13.6488 2.1499 13.5369 2.1499 13.3988V11.7988Z" fill="white"/>
</svg>
