<svg width="191" height="24" viewBox="0 0 191 24" fill="none" xmlns="http://www.w3.org/2000/svg">
<g clip-path="url(#clip0_12349_11436)">
<path fill-rule="evenodd" clip-rule="evenodd" d="M6.87238 9.01805C6.37803 9.88865 6.08765 10.9154 6.08765 11.9909C6.08765 15.2381 8.72079 17.8903 11.9786 17.8903V21.9837C6.45558 21.9837 2 17.4912 2 11.9909C2 10.1809 2.48709 8.45978 3.31902 6.99463L6.87238 9.01805Z" fill="url(#paint0_linear_12349_11436)"/>
<path fill-rule="evenodd" clip-rule="evenodd" d="M17.8255 11.991C17.8255 10.8738 17.5489 9.8836 17.0559 9.04423L20.5791 6.96875C21.4581 8.46514 21.9132 10.1771 21.9132 11.991C21.9132 17.5181 17.4538 21.9839 11.9346 21.9839V17.8904C15.1962 17.8904 17.8255 15.2573 17.8255 11.991Z" fill="url(#paint1_linear_12349_11436)"/>
<path fill-rule="evenodd" clip-rule="evenodd" d="M11.9573 6.09154C9.78367 6.09154 7.88617 7.26112 6.86757 9.02921L3.3269 6.9836C5.05233 3.9886 8.277 1.99805 11.9573 1.99805C15.6466 1.99805 18.8632 4.01897 20.5834 6.97618L17.0513 9.03664C16.0275 7.27655 14.1219 6.09154 11.9573 6.09154Z" fill="url(#paint2_linear_12349_11436)"/>
<path d="M5.09728 10.0539C6.22659 10.0539 7.14208 9.13713 7.14208 8.00621C7.14208 6.87529 6.22659 5.9585 5.09728 5.9585C3.96798 5.9585 3.05249 6.87529 3.05249 8.00621C3.05249 9.13713 3.96798 10.0539 5.09728 10.0539Z" fill="#66CBCB"/>
<path d="M18.8175 10.0539C19.9468 10.0539 20.8623 9.13711 20.8623 8.0062C20.8623 6.87528 19.9468 5.9585 18.8175 5.9585C17.6882 5.9585 16.7727 6.87528 16.7727 8.0062C16.7727 9.13711 17.6882 10.0539 18.8175 10.0539Z" fill="#FF6666"/>
<path d="M11.9572 21.9857C13.0854 21.9857 13.9999 21.0699 13.9999 19.9401C13.9999 18.8104 13.0854 17.8945 11.9572 17.8945C10.8291 17.8945 9.91455 18.8104 9.91455 19.9401C9.91455 21.0699 10.8291 21.9857 11.9572 21.9857Z" fill="#6666CC"/>
<path d="M18.8174 9.56355C19.6762 9.56355 20.3723 8.86639 20.3723 8.00639C20.3723 7.14639 19.6762 6.44922 18.8174 6.44922C17.9586 6.44922 17.2625 7.14639 17.2625 8.00639C17.2625 8.86639 17.9586 9.56355 18.8174 9.56355Z" fill="#FFCC00"/>
<path d="M5.07448 9.56355C5.93325 9.56355 6.62943 8.86639 6.62943 8.00639C6.62943 7.14639 5.93325 6.44922 5.07448 6.44922C4.2157 6.44922 3.51953 7.14639 3.51953 8.00639C3.51953 8.86639 4.2157 9.56355 5.07448 9.56355Z" fill="#FFCC00"/>
<path d="M11.9573 21.4942C12.8161 21.4942 13.5122 20.7971 13.5122 19.9371C13.5122 19.0771 12.8161 18.3799 11.9573 18.3799C11.0985 18.3799 10.4023 19.0771 10.4023 19.9371C10.4023 20.7971 11.0985 21.4942 11.9573 21.4942Z" fill="#FFCC00"/>
<path d="M37.8683 18.4138L34.5422 8.12598H32L36.1549 20.366H39.5818L43.7366 8.12598H41.1945L37.8683 18.4138Z" fill="white"/>
<path d="M48.2274 8.12549H45.7864V20.3767H48.2274V8.12549Z" fill="white"/>
<path d="M58.3069 7.87878C56.6718 7.87878 55.2495 8.66411 54.2976 9.96552V2H51.8562V20.3656H54.2976V18.5257C55.2495 19.8271 56.6718 20.6124 58.3069 20.6124C61.6554 20.6124 64.1752 17.9871 64.1752 14.24C64.1752 10.504 61.6554 7.87878 58.3069 7.87878ZM58.0157 18.3574C55.8879 18.3574 54.2976 16.7194 54.2976 14.24C54.2976 11.7718 55.8879 10.1226 58.0157 10.1226C60.1435 10.1226 61.7338 11.7606 61.7338 14.24C61.7338 16.7194 60.1435 18.3574 58.0157 18.3574Z" fill="white"/>
<path d="M72.0034 7.87891C68.5317 7.87891 65.9895 10.5042 65.9895 14.2513C65.9895 17.9985 68.5317 20.6237 72.0034 20.6237C74.8144 20.6237 76.9422 19.2326 77.7037 16.7083H75.0608C74.568 17.8078 73.5937 18.4697 72.1042 18.4697C70.0548 18.4697 68.6773 17.2244 68.3861 15.0928H77.9725C77.9949 14.8235 78.0173 14.5542 78.0173 14.2625C78.0173 10.5042 75.4751 7.87891 72.0034 7.87891ZM68.4085 13.3201C68.6997 11.2671 70.0212 10.033 72.0034 10.033C73.9632 10.033 75.3071 11.2558 75.5983 13.3201H68.4085Z" fill="white"/>
<path d="M47.0063 6.19559C48.1194 6.19559 49.0218 5.29147 49.0218 4.17617C49.0218 3.06087 48.1194 2.15674 47.0063 2.15674C45.8931 2.15674 44.9907 3.06087 44.9907 4.17617C44.9907 5.29147 45.8931 6.19559 47.0063 6.19559Z" fill="white"/>
<path d="M90.1637 20.612C93.6336 20.612 96.2483 17.9773 96.2483 14.21C96.2483 10.4427 93.6336 7.80811 90.1637 7.80811C86.6938 7.80811 84.0791 10.4427 84.0791 14.21C84.0791 17.9773 86.6938 20.612 90.1637 20.612ZM90.1637 19.2577C87.5246 19.2577 85.5453 17.2387 85.5453 14.21C85.5453 11.1814 87.5246 9.16236 90.1637 9.16236C92.8028 9.16236 94.7821 11.1814 94.7821 14.21C94.7821 17.2387 92.8028 19.2577 90.1637 19.2577Z" fill="white"/>
<path d="M100.233 8.05434H98.7671V20.3658H100.233V13.7668C100.233 10.5905 101.675 9.11312 103.972 9.11312C106.269 9.11312 107.711 10.5905 107.711 13.7668V20.3658H109.177V13.4467C109.177 9.50708 107.124 7.80811 104.363 7.80811C102.506 7.80811 100.991 8.66991 100.233 10.4674V8.05434Z" fill="white"/>
<path d="M123.373 14.7271C123.398 14.5548 123.398 14.3824 123.398 14.21C123.398 10.4427 120.881 7.80811 117.484 7.80811C114.088 7.80811 111.571 10.4427 111.571 14.21C111.571 17.9773 114.088 20.612 117.484 20.612C120.172 20.612 122.298 19.1346 123.056 16.6723H121.492C120.856 18.2974 119.415 19.307 117.533 19.307C114.992 19.307 113.208 17.5341 113.012 14.7271H123.373ZM117.484 9.11312C119.977 9.11312 121.761 10.8613 121.956 13.6437H113.012C113.232 10.8613 114.992 9.11312 117.484 9.11312Z" fill="white"/>
<path d="M133.2 21.1199C130.896 21.1199 129 20.0639 129 17.8079C129 12.5519 137.664 15.7439 137.664 12.3359C137.664 10.6559 136.224 9.81588 134.304 9.81588C132.288 9.81588 130.824 10.8239 130.824 12.8159H129.36C129.36 9.79188 131.76 8.63988 134.304 8.63988C136.8 8.63988 139.104 9.67188 139.104 12.3839V20.8799H137.688V18.4319C136.848 20.3039 135.048 21.1199 133.2 21.1199ZM130.464 17.7359C130.464 19.1999 131.688 19.8959 133.44 19.8959C135.6 19.8959 137.688 18.5279 137.688 15.9359V14.4479C135.6 15.9359 130.464 14.6639 130.464 17.7359Z" fill="white"/>
<path d="M146.779 8.63988C148.771 8.63988 150.451 9.69588 151.411 11.4239V2.87988H152.851V20.8799H151.411V18.3359C150.451 20.0639 148.771 21.1199 146.779 21.1199C143.515 21.1199 141.043 18.5519 141.043 14.8799C141.043 11.2079 143.515 8.63988 146.779 8.63988ZM146.947 9.95988C144.403 9.95988 142.483 11.9279 142.483 14.8799C142.483 17.8319 144.403 19.7999 146.947 19.7999C149.491 19.7999 151.411 17.8319 151.411 14.8799C151.411 11.9279 149.491 9.95988 146.947 9.95988Z" fill="white"/>
<path d="M163.825 13.9199C163.825 11.1839 162.625 9.91188 160.609 9.91188C158.593 9.91188 157.393 11.1839 157.393 13.9199V20.8799H155.953V8.87988H157.393V10.8719C158.089 9.35988 159.409 8.63988 160.993 8.63988C162.817 8.63988 164.305 9.50388 164.953 11.3999C165.577 9.52788 167.089 8.63988 168.937 8.63988C171.313 8.63988 173.137 10.1519 173.137 13.6079V20.8799H171.697V13.9199C171.697 11.1839 170.521 9.91188 168.553 9.91188C166.513 9.91188 165.265 11.1839 165.265 13.9199V20.8799H163.825V13.9199Z" fill="white"/>
<path d="M176.833 5.80788C176.161 5.80788 175.657 5.30388 175.657 4.63188C175.657 3.95988 176.161 3.45588 176.833 3.45588C177.529 3.45588 178.009 3.95988 178.009 4.63188C178.009 5.30388 177.529 5.80788 176.833 5.80788ZM177.553 20.8799H176.113V8.87988H177.553V20.8799Z" fill="white"/>
<path d="M182.08 8.87988V11.2319C182.824 9.47988 184.312 8.63988 186.136 8.63988C188.848 8.63988 190.864 10.2959 190.864 14.1359V20.8799H189.424V14.4479C189.424 11.3519 188.008 9.91188 185.752 9.91188C183.496 9.91188 182.08 11.3519 182.08 14.4479V20.8799H180.64V8.87988H182.08Z" fill="white"/>
</g>
<defs>
<linearGradient id="paint0_linear_12349_11436" x1="4.12558" y1="13.6673" x2="5.71875" y2="6.63215" gradientUnits="userSpaceOnUse">
<stop stop-color="#6666CC"/>
<stop offset="1" stop-color="#6666CC" stop-opacity="0.3"/>
</linearGradient>
<linearGradient id="paint1_linear_12349_11436" x1="16.9239" y1="18.8903" x2="10.4502" y2="21.9778" gradientUnits="userSpaceOnUse">
<stop stop-color="#FF6666"/>
<stop offset="1" stop-color="#FF6666" stop-opacity="0.3"/>
</linearGradient>
<linearGradient id="paint2_linear_12349_11436" x1="14.455" y1="5.51734" x2="18.3309" y2="10.6789" gradientUnits="userSpaceOnUse">
<stop stop-color="#66CCCC"/>
<stop offset="1" stop-color="#66CCCC" stop-opacity="0.3"/>
</linearGradient>
<clipPath id="clip0_12349_11436">
<rect width="190.864" height="24" fill="white"/>
</clipPath>
</defs>
</svg>
