<svg width="69" height="20" viewBox="0 0 69 20" fill="none" xmlns="http://www.w3.org/2000/svg">
<g clip-path="url(#clip0_12169_76067)">
<path fill-rule="evenodd" clip-rule="evenodd" d="M4.90445 7.02469C4.40685 7.89583 4.11456 8.92327 4.11456 9.99935C4.11456 13.2487 6.76504 15.9024 10.0443 15.9024V19.9985C4.48491 19.9985 0 15.5031 0 9.99935C0 8.18829 0.490295 6.46607 1.32771 5L4.90445 7.02469Z" fill="url(#paint0_linear_12169_76067)"/>
<path fill-rule="evenodd" clip-rule="evenodd" d="M15.9298 9.99903C15.9298 8.88112 15.6513 7.8903 15.155 7.05041L18.7015 4.97363C19.5862 6.47095 20.0443 8.18397 20.0443 9.99903C20.0443 15.5296 15.5555 19.9982 10 19.9982V15.9021C13.2831 15.9021 15.9298 13.2674 15.9298 9.99903Z" fill="url(#paint1_linear_12169_76067)"/>
<path fill-rule="evenodd" clip-rule="evenodd" d="M10.0231 4.09605C7.83521 4.09605 5.92521 5.26636 4.89991 7.03556L1.33594 4.98868C3.07272 1.9918 6.31862 0 10.0231 0C13.7367 0 16.9745 2.02218 18.706 4.98125L15.1507 7.04299C14.1201 5.2818 12.202 4.09605 10.0231 4.09605Z" fill="url(#paint2_linear_12169_76067)"/>
<path d="M3.11782 8.06088C4.25457 8.06088 5.17608 7.14351 5.17608 6.01188C5.17608 4.88026 4.25457 3.96289 3.11782 3.96289C1.98108 3.96289 1.05957 4.88026 1.05957 6.01188C1.05957 7.14351 1.98108 8.06088 3.11782 8.06088Z" fill="#66CBCB"/>
<path d="M16.9279 8.06085C18.0646 8.06085 18.9861 7.14349 18.9861 6.01187C18.9861 4.88025 18.0646 3.96289 16.9279 3.96289C15.7911 3.96289 14.8696 4.88025 14.8696 6.01187C14.8696 7.14349 15.7911 8.06085 16.9279 8.06085Z" fill="#FF6666"/>
<path d="M10.0229 20C11.1585 20 12.079 19.0836 12.079 17.9531C12.079 16.8227 11.1585 15.9062 10.0229 15.9062C8.88735 15.9062 7.9668 16.8227 7.9668 17.9531C7.9668 19.0836 8.88735 20 10.0229 20Z" fill="#6666CC"/>
<path d="M16.928 7.57038C17.7924 7.57038 18.4932 6.87278 18.4932 6.01224C18.4932 5.15171 17.7924 4.4541 16.928 4.4541C16.0635 4.4541 15.3628 5.15171 15.3628 6.01224C15.3628 6.87278 16.0635 7.57038 16.928 7.57038Z" fill="#FFCC00"/>
<path d="M3.09448 7.57038C3.95891 7.57038 4.65966 6.87278 4.65966 6.01224C4.65966 5.15171 3.95891 4.4541 3.09448 4.4541C2.23005 4.4541 1.5293 5.15171 1.5293 6.01224C1.5293 6.87278 2.23005 7.57038 3.09448 7.57038Z" fill="#FFCC00"/>
<path d="M10.0227 19.5084C10.8871 19.5084 11.5879 18.8108 11.5879 17.9502C11.5879 17.0897 10.8871 16.3921 10.0227 16.3921C9.15828 16.3921 8.45752 17.0897 8.45752 17.9502C8.45752 18.8108 9.15828 19.5084 10.0227 19.5084Z" fill="#FFCC00"/>
</g>
<path d="M29.7584 15.8283L26.5295 5.90723H24.0615L28.095 17.7108H31.4219L35.4554 5.90723H32.9874L29.7584 15.8283Z" fill="#222222"/>
<path d="M39.815 5.90674H37.4453V17.7212H39.815V5.90674Z" fill="#222222"/>
<path d="M49.6001 5.6692C48.0128 5.6692 46.6321 6.42653 45.708 7.68154V0H43.3379V17.7108H45.708V15.9365C46.6321 17.1915 48.0128 17.9488 49.6001 17.9488C52.8509 17.9488 55.2971 15.4172 55.2971 11.8036C55.2971 8.20086 52.8509 5.6692 49.6001 5.6692ZM49.3175 15.7742C47.2518 15.7742 45.708 14.1946 45.708 11.8036C45.708 9.42341 47.2518 7.83301 49.3175 7.83301C51.3831 7.83301 52.927 9.4126 52.927 11.8036C52.927 14.1946 51.3831 15.7742 49.3175 15.7742Z" fill="#222222"/>
<path d="M62.8964 5.66895C59.526 5.66895 57.0581 8.20061 57.0581 11.8142C57.0581 15.4278 59.526 17.9594 62.8964 17.9594C65.6252 17.9594 67.6909 16.6179 68.4302 14.1836H65.8644C65.386 15.2438 64.4402 15.8822 62.9942 15.8822C61.0046 15.8822 59.6674 14.6812 59.3847 12.6256H68.6911C68.7129 12.366 68.7346 12.1063 68.7346 11.825C68.7346 8.20061 66.2667 5.66895 62.8964 5.66895ZM59.4064 10.9162C59.6891 8.93631 60.972 7.74621 62.8964 7.74621C64.7989 7.74621 66.1036 8.92549 66.3863 10.9162H59.4064Z" fill="#222222"/>
<path d="M38.6295 4.04623C39.7102 4.04623 40.5862 3.17434 40.5862 2.0988C40.5862 1.02326 39.7102 0.151367 38.6295 0.151367C37.5489 0.151367 36.6729 1.02326 36.6729 2.0988C36.6729 3.17434 37.5489 4.04623 38.6295 4.04623Z" fill="#222222"/>
<defs>
<linearGradient id="paint0_linear_12169_76067" x1="2.13957" y1="11.6769" x2="3.72522" y2="4.63324" gradientUnits="userSpaceOnUse">
<stop stop-color="#6666CC"/>
<stop offset="1" stop-color="#6666CC" stop-opacity="0.3"/>
</linearGradient>
<linearGradient id="paint1_linear_12169_76067" x1="15.0222" y1="16.9027" x2="8.52025" y2="20.022" gradientUnits="userSpaceOnUse">
<stop stop-color="#FF6666"/>
<stop offset="1" stop-color="#FF6666" stop-opacity="0.3"/>
</linearGradient>
<linearGradient id="paint2_linear_12169_76067" x1="12.5372" y1="3.5215" x2="16.4091" y2="8.7084" gradientUnits="userSpaceOnUse">
<stop stop-color="#66CCCC"/>
<stop offset="1" stop-color="#66CCCC" stop-opacity="0.3"/>
</linearGradient>
<clipPath id="clip0_12169_76067">
<rect width="20.0614" height="20" fill="white"/>
</clipPath>
</defs>
</svg>
