<svg width="40" height="40" viewBox="0 0 40 40" fill="none" xmlns="http://www.w3.org/2000/svg">
<path fill-rule="evenodd" clip-rule="evenodd" d="M13.6092 15.6001C12.9386 16.7906 12.5447 18.1948 12.5447 19.6655C12.5447 24.1062 16.1165 27.733 20.5356 27.733V33.3309C13.0438 33.3309 7 27.1873 7 19.6655C7 17.1903 7.66071 14.8366 8.7892 12.833L13.6092 15.6001Z" fill="url(#paint0_linear_12562_3021)"/>
<path fill-rule="evenodd" clip-rule="evenodd" d="M28.4667 19.6657C28.4667 18.1378 28.0914 16.7837 27.4226 15.6359L32.2018 12.7976C33.3941 14.8439 34.0114 17.1851 34.0114 19.6657C34.0114 27.2241 27.9624 33.3311 20.4758 33.3311V27.7332C24.9001 27.7332 28.4667 24.1324 28.4667 19.6657Z" fill="url(#paint1_linear_12562_3021)"/>
<path fill-rule="evenodd" clip-rule="evenodd" d="M20.5066 11.5979C17.5582 11.5979 14.9843 13.1974 13.6026 15.6153L8.79987 12.8179C11.1403 8.72212 15.5145 6 20.5066 6C25.5109 6 29.8742 8.76365 32.2075 12.8077L27.4164 15.6254C26.0277 13.2185 23.4429 11.5979 20.5066 11.5979Z" fill="url(#paint2_linear_12562_3021)"/>
<path d="M11.2013 17.0166C12.7332 17.0166 13.975 15.7629 13.975 14.2163C13.975 12.6697 12.7332 11.416 11.2013 11.416C9.66949 11.416 8.42767 12.6697 8.42767 14.2163C8.42767 15.7629 9.66949 17.0166 11.2013 17.0166Z" fill="#66CBCB"/>
<path d="M29.8122 17.0166C31.344 17.0166 32.5858 15.7628 32.5858 14.2163C32.5858 12.6697 31.344 11.416 29.8122 11.416C28.2803 11.416 27.0385 12.6697 27.0385 14.2163C27.0385 15.7628 28.2803 17.0166 29.8122 17.0166Z" fill="#FF6666"/>
<path d="M20.5065 33.3335C22.0368 33.3335 23.2773 32.0811 23.2773 30.5362C23.2773 28.9912 22.0368 27.7388 20.5065 27.7388C18.9762 27.7388 17.7357 28.9912 17.7357 30.5362C17.7357 32.0811 18.9762 33.3335 20.5065 33.3335Z" fill="#6666CC"/>
<path d="M29.812 16.3461C30.9769 16.3461 31.9213 15.3927 31.9213 14.2166C31.9213 13.0405 30.9769 12.0872 29.812 12.0872C28.6471 12.0872 27.7028 13.0405 27.7028 14.2166C27.7028 15.3927 28.6471 16.3461 29.812 16.3461Z" fill="#FFCC00"/>
<path d="M11.1704 16.3461C12.3353 16.3461 13.2796 15.3927 13.2796 14.2166C13.2796 13.0405 12.3353 12.0872 11.1704 12.0872C10.0055 12.0872 9.06116 13.0405 9.06116 14.2166C9.06116 15.3927 10.0055 16.3461 11.1704 16.3461Z" fill="#FFCC00"/>
<path d="M20.5066 32.6615C21.6715 32.6615 22.6158 31.7081 22.6158 30.532C22.6158 29.356 21.6715 28.4026 20.5066 28.4026C19.3417 28.4026 18.3974 29.356 18.3974 30.532C18.3974 31.7081 19.3417 32.6615 20.5066 32.6615Z" fill="#FFCC00"/>
<defs>
<linearGradient id="paint0_linear_12562_3021" x1="9.88325" y1="21.958" x2="12.078" y2="12.345" gradientUnits="userSpaceOnUse">
<stop stop-color="#6666CC"/>
<stop offset="1" stop-color="#6666CC" stop-opacity="0.3"/>
</linearGradient>
<linearGradient id="paint1_linear_12562_3021" x1="27.2436" y1="29.1006" x2="18.436" y2="33.2671" gradientUnits="userSpaceOnUse">
<stop stop-color="#FF6666"/>
<stop offset="1" stop-color="#FF6666" stop-opacity="0.3"/>
</linearGradient>
<linearGradient id="paint2_linear_12562_3021" x1="23.8946" y1="10.8127" x2="29.2068" y2="17.8299" gradientUnits="userSpaceOnUse">
<stop stop-color="#66CCCC"/>
<stop offset="1" stop-color="#66CCCC" stop-opacity="0.3"/>
</linearGradient>
</defs>
</svg>
