<svg width="24" height="24" viewBox="0 0 24 24" fill="none" xmlns="http://www.w3.org/2000/svg">
<g clip-path="url(#clip0_16483_306010)">
<path fill-rule="evenodd" clip-rule="evenodd" d="M12 18.5625C15.6244 18.5625 18.5625 15.6244 18.5625 12C18.5625 8.37563 15.6244 5.4375 12 5.4375C8.37563 5.4375 5.4375 8.37563 5.4375 12C5.4375 15.6244 8.37563 18.5625 12 18.5625ZM12 20.0625C16.4528 20.0625 20.0625 16.4528 20.0625 12C20.0625 7.5472 16.4528 3.9375 12 3.9375C7.5472 3.9375 3.9375 7.5472 3.9375 12C3.9375 16.4528 7.5472 20.0625 12 20.0625Z" fill="currentColor"/>
<path fill-rule="evenodd" clip-rule="evenodd" d="M11.2641 15.1694L11.2641 16.5H12.6891L12.6891 15.1694H13.3606C14.4909 15.1694 15.4072 14.2531 15.4072 13.1228C15.4072 11.9925 14.4909 11.0762 13.3606 11.0762H12.6891V9.83308H14.6946V8.40808H12.6891L12.6891 7.5H11.2641L11.2641 8.40808H10.447C9.31668 8.40808 8.40039 9.32437 8.40039 10.4547C8.40039 11.585 9.31668 12.5013 10.447 12.5013H11.2641L11.2641 13.7444L8.85932 13.7444L8.85932 15.1694H11.2641ZM12.6891 13.7444H13.3606C13.7039 13.7444 13.9822 13.4661 13.9822 13.1228C13.9822 12.7795 13.7039 12.5012 13.3606 12.5012H12.6891L12.6891 13.7444ZM11.2641 11.0763L11.2641 9.83308H10.447C10.1037 9.83308 9.82539 10.1114 9.82539 10.4547C9.82539 10.798 10.1037 11.0763 10.447 11.0763H11.2641Z" fill="currentColor"/>
</g>
<defs>
<clipPath id="clip0_16483_306010">
<rect width="18" height="18" fill="white" transform="translate(3 3)"/>
</clipPath>
</defs>
</svg>
