<svg width="20" height="20" viewBox="0 0 20 20" fill="none" xmlns="http://www.w3.org/2000/svg">
<path fill-rule="evenodd" clip-rule="evenodd" d="M10 3.33317C6.3181 3.33317 3.33333 6.31794 3.33333 9.99984C3.33333 13.6817 6.3181 16.6665 10 16.6665C13.6819 16.6665 16.6667 13.6817 16.6667 9.99984C16.6667 6.31794 13.6819 3.33317 10 3.33317ZM1.66666 9.99984C1.66666 5.39746 5.39762 1.6665 10 1.6665C14.6024 1.6665 18.3333 5.39746 18.3333 9.99984C18.3333 14.6022 14.6024 18.3332 10 18.3332C5.39762 18.3332 1.66666 14.6022 1.66666 9.99984Z" fill="#222222"/>
<path fill-rule="evenodd" clip-rule="evenodd" d="M9.16666 14.1663L9.16666 8.33301L10.8333 8.33301L10.8333 14.1663L9.16666 14.1663Z" fill="#222222"/>
<path fill-rule="evenodd" clip-rule="evenodd" d="M9.16666 7.49967L9.16666 5.83301L10.8333 5.83301L10.8333 7.49967L9.16666 7.49967Z" fill="#222222"/>
</svg>
