<svg width="242" height="25" viewBox="0 0 242 25" fill="none" xmlns="http://www.w3.org/2000/svg">
<path d="M40.4868 3.17169L36.5287 20.8416H38.9083L39.8271 16.5066H44.6805L45.5993 20.8416H47.9789L44.0208 3.17169H40.4868ZM40.2983 14.3391L42.2538 5.05649L44.2093 14.3391H40.2983Z" fill="#111111"/>
<path d="M53.8398 8.82608C50.6121 8.82608 48.1854 11.347 48.1854 14.9517C48.1854 18.5563 50.6121 21.0772 53.8398 21.0772C55.4183 21.0772 56.7848 20.3233 57.7036 19.0746V20.8416H60.0596V3.17169H57.7036V10.8287C56.7848 9.58 55.4183 8.82608 53.8398 8.82608ZM54.1225 10.9936C56.1722 10.9936 57.7036 12.5721 57.7036 14.9517C57.7036 17.3312 56.1722 18.9097 54.1225 18.9097C52.0728 18.9097 50.5414 17.3312 50.5414 14.9517C50.5414 12.5721 52.0728 10.9936 54.1225 10.9936Z" fill="#111111"/>
<path d="M70.0545 14.0799V20.8416H72.4105V14.0799C72.4105 11.9595 73.3765 10.8994 74.9785 10.8994C76.5571 10.8994 77.4995 11.9595 77.4995 14.0799V20.8416H79.8554V13.6087C79.8554 10.381 78.0885 8.82608 75.7089 8.82608C74.0126 8.82608 72.6461 9.62712 71.9629 11.1585C71.2796 9.58 69.9132 8.82608 68.2404 8.82608C66.8268 8.82608 65.6488 9.48576 64.9656 10.7109V9.06168H62.6096V20.8416H64.9656V14.0799C64.9656 11.9595 65.9315 10.8994 67.51 10.8994C69.0886 10.8994 70.0545 11.9595 70.0545 14.0799Z" fill="#111111"/>
<path d="M83.4601 6.49365C84.379 6.49365 85.0151 5.81041 85.0151 4.91513C85.0151 4.01985 84.379 3.36018 83.4601 3.36018C82.5648 3.36018 81.9052 4.01985 81.9052 4.91513C81.9052 5.81041 82.5648 6.49365 83.4601 6.49365ZM84.6381 20.8416V9.06168H82.2821V20.8416H84.6381Z" fill="#111111"/>
<path d="M95.2412 14.4098V20.8416H97.5972V13.9386C97.5972 10.4753 95.6888 8.82608 93.1208 8.82608C91.5658 8.82608 90.27 9.55644 89.5397 10.9229V9.06168H87.1837V20.8416H89.5397V14.4098C89.5397 12.0773 90.6234 10.8994 92.3904 10.8994C94.1574 10.8994 95.2412 12.0773 95.2412 14.4098Z" fill="#111111"/>
<path d="M112.332 14.1035V15.0459C112.332 17.8731 111.248 18.9097 109.482 18.9097C107.691 18.9097 106.631 17.8731 106.631 15.0459V8.96744C106.631 6.14025 107.715 5.10361 109.482 5.10361C111.272 5.10361 112.332 6.14025 112.332 8.96744V9.67423H114.688V8.96744C114.688 4.93869 112.733 2.9361 109.482 2.9361C106.23 2.9361 104.275 4.93869 104.275 8.96744V15.0459C104.275 19.0746 106.23 21.0772 109.482 21.0772C112.733 21.0772 114.688 19.0746 114.688 15.0459V14.1035H112.332Z" fill="#111111"/>
<path d="M122.093 21.0772C125.51 21.0772 128.054 18.5563 128.054 14.9517C128.054 11.347 125.51 8.82608 122.093 8.82608C118.677 8.82608 116.133 11.347 116.133 14.9517C116.133 18.5563 118.677 21.0772 122.093 21.0772ZM122.093 18.9097C120.044 18.9097 118.489 17.3312 118.489 14.9517C118.489 12.5721 120.044 10.9936 122.093 10.9936C124.143 10.9936 125.698 12.5721 125.698 14.9517C125.698 17.3312 124.143 18.9097 122.093 18.9097Z" fill="#111111"/>
<path d="M137.786 14.4098V20.8416H140.142V13.9386C140.142 10.4753 138.234 8.82608 135.666 8.82608C134.111 8.82608 132.815 9.55644 132.085 10.9229V9.06168H129.729V20.8416H132.085V14.4098C132.085 12.0773 133.168 10.8994 134.935 10.8994C136.702 10.8994 137.786 12.0773 137.786 14.4098Z" fill="#111111"/>
<path d="M151.662 17.5197C151.662 12.7135 144.476 14.8103 144.476 12.1951C144.476 11.2528 145.324 10.7109 146.597 10.7109C147.963 10.7109 148.976 11.5355 148.976 12.6663H151.426C151.426 10.4988 149.353 8.82608 146.597 8.82608C144.052 8.82608 142.097 10.1454 142.097 12.2894C142.097 17.0249 149.235 14.7632 149.235 17.6139C149.235 18.6741 148.387 19.216 146.95 19.216C145.442 19.216 144.311 18.4856 144.311 17.0485H141.861C141.861 19.6165 144.052 21.0772 146.95 21.0772C149.683 21.0772 151.662 19.7343 151.662 17.5197Z" fill="#111111"/>
<path d="M158.586 21.0772C162.003 21.0772 164.547 18.5563 164.547 14.9517C164.547 11.347 162.003 8.82608 158.586 8.82608C155.17 8.82608 152.626 11.347 152.626 14.9517C152.626 18.5563 155.17 21.0772 158.586 21.0772ZM158.586 18.9097C156.537 18.9097 154.982 17.3312 154.982 14.9517C154.982 12.5721 156.537 10.9936 158.586 10.9936C160.636 10.9936 162.191 12.5721 162.191 14.9517C162.191 17.3312 160.636 18.9097 158.586 18.9097Z" fill="#111111"/>
<path d="M168.578 20.8416V3.17169H166.222V20.8416H168.578Z" fill="#111111"/>
<path d="M181.796 15.7527C181.819 15.4935 181.843 15.2344 181.843 14.9517C181.843 11.347 179.393 8.82608 176.047 8.82608C172.702 8.82608 170.252 11.347 170.252 14.9517C170.252 18.5563 172.702 21.0772 176.047 21.0772C178.757 21.0772 180.806 19.7343 181.537 17.3077H178.992C178.521 18.3678 177.579 19.004 176.142 19.004C174.163 19.004 172.843 17.8024 172.56 15.7527H181.796ZM176.047 10.8994C177.932 10.8994 179.228 12.0773 179.511 14.0564H172.584C172.867 12.0773 174.139 10.8994 176.047 10.8994Z" fill="#111111"/>
<path d="M14.827 2.45325C14.827 1.1002 15.9335 0.00305176 17.2981 0.00305176H2.47116C1.10653 0.00305176 0 1.1002 0 2.45325C0 3.8063 1.10653 4.90345 2.47116 4.90345H17.2981C15.9335 4.90345 14.827 3.8063 14.827 2.45325Z" fill="#66CCCC"/>
<path d="M15.7313 20.3242L8.31783 7.59265C9.00014 8.76466 8.59515 10.2634 7.41311 10.9399C6.23107 11.6164 4.71955 11.2149 4.03723 10.0429L11.4507 22.7744C12.133 23.9464 13.6445 24.3479 14.8266 23.6714C16.0086 22.9949 16.4136 21.4962 15.7313 20.3242Z" fill="#6666CC"/>
<path d="M25.9484 0.328608C24.7664 -0.347919 23.2548 0.0536413 22.5725 1.22565L15.1591 13.9572C15.8414 12.7851 17.3529 12.3836 18.5349 13.0601C19.717 13.7366 20.122 15.2353 19.4397 16.4074L26.8531 3.67585C27.5354 2.50384 27.1304 1.0065 25.9484 0.328608Z" fill="#FF6666"/>
<path d="M17.2966 4.90223C18.6614 4.90223 19.7678 3.80524 19.7678 2.45203C19.7678 1.09882 18.6614 0.00183105 17.2966 0.00183105C15.9318 0.00183105 14.8254 1.09882 14.8254 2.45203C14.8254 3.80524 15.9318 4.90223 17.2966 4.90223Z" fill="#FFCC00"/>
<path d="M6.17752 11.2664C7.5423 11.2664 8.64868 10.1694 8.64868 8.81622C8.64868 7.46302 7.5423 6.36603 6.17752 6.36603C4.81273 6.36603 3.70636 7.46302 3.70636 8.81622C3.70636 10.1694 4.81273 11.2664 6.17752 11.2664Z" fill="#FFCC00"/>
<path d="M17.2966 17.6325C18.6614 17.6325 19.7678 16.5355 19.7678 15.1823C19.7678 13.829 18.6614 12.7321 17.2966 12.7321C15.9318 12.7321 14.8254 13.829 14.8254 15.1823C14.8254 16.5355 15.9318 17.6325 17.2966 17.6325Z" fill="#FFCC00"/>
<path d="M198 6C198 3.79086 199.791 2 202 2H238C240.209 2 242 3.79086 242 6V21C242 23.2091 240.209 25 238 25H202C199.791 25 198 23.2091 198 21V6Z" fill="#4A65F6" fill-opacity="0.08"/>
<path d="M210.88 12.876C211.543 12.9973 212.075 13.2353 212.476 13.59C212.887 13.9447 213.092 14.486 213.092 15.214C213.092 16.222 212.737 16.9407 212.028 17.37C211.319 17.79 210.325 18 209.046 18H206.134V8.326H208.668C211.337 8.326 212.672 9.14733 212.672 10.79C212.672 11.3593 212.499 11.826 212.154 12.19C211.809 12.5447 211.384 12.7733 210.88 12.876ZM207.982 9.684V12.302H209.116C209.629 12.302 210.035 12.19 210.334 11.966C210.633 11.7327 210.782 11.392 210.782 10.944C210.782 10.4773 210.623 10.1507 210.306 9.964C209.998 9.77733 209.513 9.684 208.85 9.684H207.982ZM209.06 16.614C209.741 16.614 210.259 16.5113 210.614 16.306C210.978 16.1007 211.16 15.7133 211.16 15.144C211.16 14.5933 210.987 14.1967 210.642 13.954C210.306 13.7113 209.844 13.59 209.256 13.59H207.982V16.614H209.06ZM220.74 14.122C220.74 14.2153 220.726 14.458 220.698 14.85H216.05C216.106 15.5687 216.293 16.082 216.61 16.39C216.927 16.698 217.347 16.852 217.87 16.852C218.197 16.852 218.505 16.8007 218.794 16.698C219.083 16.586 219.391 16.418 219.718 16.194L220.46 17.216C219.639 17.8787 218.724 18.21 217.716 18.21C216.587 18.21 215.714 17.8647 215.098 17.174C214.491 16.4833 214.188 15.5407 214.188 14.346C214.188 13.59 214.319 12.9133 214.58 12.316C214.841 11.7093 215.219 11.238 215.714 10.902C216.209 10.5567 216.797 10.384 217.478 10.384C218.514 10.384 219.317 10.7153 219.886 11.378C220.455 12.0313 220.74 12.946 220.74 14.122ZM218.962 13.604C218.962 12.3067 218.481 11.658 217.52 11.658C217.081 11.658 216.736 11.8213 216.484 12.148C216.241 12.4653 216.097 12.9787 216.05 13.688H218.962V13.604ZM226.59 17.65C226.328 17.8367 226.034 17.9767 225.708 18.07C225.39 18.1633 225.064 18.21 224.728 18.21C224 18.2007 223.444 17.9953 223.062 17.594C222.688 17.1833 222.502 16.5813 222.502 15.788V11.882H221.34V10.594H222.502V8.956L224.294 8.746V10.594H226.016L225.834 11.882H224.294V15.746C224.294 16.11 224.354 16.3713 224.476 16.53C224.606 16.6887 224.807 16.768 225.078 16.768C225.348 16.768 225.642 16.6793 225.96 16.502L226.59 17.65ZM232.935 16.04C232.935 16.3293 232.977 16.544 233.061 16.684C233.154 16.8147 233.299 16.9173 233.495 16.992L233.117 18.182C232.697 18.1447 232.351 18.042 232.081 17.874C231.819 17.706 231.619 17.4493 231.479 17.104C231.227 17.4773 230.909 17.7573 230.527 17.944C230.153 18.1213 229.733 18.21 229.267 18.21C228.529 18.21 227.946 18 227.517 17.58C227.087 17.16 226.873 16.6093 226.873 15.928C226.873 15.1253 227.162 14.514 227.741 14.094C228.329 13.6647 229.164 13.45 230.247 13.45H231.171V13.03C231.171 12.554 231.059 12.2227 230.835 12.036C230.62 11.84 230.27 11.742 229.785 11.742C229.243 11.742 228.59 11.8727 227.825 12.134L227.405 10.916C228.329 10.5613 229.225 10.384 230.093 10.384C231.987 10.384 232.935 11.2333 232.935 12.932V16.04ZM229.743 16.908C230.349 16.908 230.825 16.6047 231.171 15.998V14.5H230.429C229.271 14.5 228.693 14.9293 228.693 15.788C228.693 16.1427 228.781 16.418 228.959 16.614C229.136 16.81 229.397 16.908 229.743 16.908Z" fill="#4A65F6"/>
</svg>
