<svg width="24" height="24" viewBox="0 0 24 24" fill="none" xmlns="http://www.w3.org/2000/svg">
  <rect x="0.5" y="0.5" width="23" height="23" rx="11.5" fill="white"/>
  <path fill-rule="evenodd" clip-rule="evenodd" d="M8 16V9.75H9V16H15V9.75H16V16C16 16.5523 15.5523 17 15 17H9C8.44772 17 8 16.5523 8 16Z" fill="#222222"/>
  <path fill-rule="evenodd" clip-rule="evenodd" d="M10.5 14.625V10.625H11.5V14.625H10.5Z" fill="#222222"/>
  <path fill-rule="evenodd" clip-rule="evenodd" d="M12.5 14.625V10.625H13.5V14.625H12.5Z" fill="#222222"/>
  <path fill-rule="evenodd" clip-rule="evenodd" d="M17 9H7V8H17V9Z" fill="#222222"/>
  <path d="M10.5 7.5C10.5 7.22386 10.7239 7 11 7H13C13.2761 7 13.5 7.22386 13.5 7.5V8.25C13.5 8.52614 13.2761 8.75 13 8.75H11C10.7239 8.75 10.5 8.52614 10.5 8.25V7.5Z" fill="#222222"/>
  <rect x="0.5" y="0.5" width="23" height="23" rx="11.5" stroke="#E5E5E5"/>
</svg>
